 <svg width="168" height="38" viewBox="0 0 64 21" fill="none" xmlns="http://www.w3.org/2000/svg">
    <path d="M3.528 0.399995H7.7L10.892 20H7.812L7.252 16.108V16.164H3.752L3.192 20H0.335999L3.528 0.399995ZM6.888 13.504L5.516 3.816H5.46L4.116 13.504H6.888Z" fill="#FFFFFF"/>
    <path d="M10.7813 0.399995H13.8893L15.9053 15.604H15.9613L17.9773 0.399995H20.8053L17.8373 20H13.7493L10.7813 0.399995Z" fill="#FFFFFF"/>
    <path d="M23.8717 0.399995H28.0437L31.2358 20H28.1557L27.5957 16.108V16.164H24.0957L23.5357 20H20.6797L23.8717 0.399995ZM27.2317 13.504L25.8597 3.816H25.8037L24.4597 13.504H27.2317Z" fill="#FFFFFF"/>
    <path d="M32.73 0.399995H35.81V17.2H40.878V20H32.73V0.399995Z" fill="#FFFFFF"/>
    <path d="M46.6977 20.28C45.1857 20.28 44.0283 19.8507 43.2257 18.992C42.423 18.1333 42.0217 16.92 42.0217 15.352V5.048C42.0217 3.48 42.423 2.26666 43.2257 1.408C44.0283 0.549329 45.1857 0.119995 46.6977 0.119995C48.2097 0.119995 49.367 0.549329 50.1697 1.408C50.9723 2.26666 51.3737 3.48 51.3737 5.048V15.352C51.3737 16.92 50.9723 18.1333 50.1697 18.992C49.367 19.8507 48.2097 20.28 46.6977 20.28ZM46.6977 17.48C47.7617 17.48 48.2937 16.836 48.2937 15.548V4.852C48.2937 3.564 47.7617 2.92 46.6977 2.92C45.6337 2.92 45.1017 3.564 45.1017 4.852V15.548C45.1017 16.836 45.6337 17.48 46.6977 17.48Z" fill="#FFFFFF"/>
    <path d="M53.4566 0.399995H57.3206L60.3166 12.132H60.3726V0.399995H63.1166V20H59.9526L56.2566 5.692H56.2006V20H53.4566V0.399995Z" fill="#FFFFFF"/>
</svg>     